<?xml version="1.0" encoding="utf-8"?>
<!-- Generator: Adobe Illustrator 27.2.0, SVG Export Plug-In . SVG Version: 6.00 Build 0)  -->
<svg version="1.1" id="Layer_1" xmlns="http://www.w3.org/2000/svg" xmlns:xlink="http://www.w3.org/1999/xlink" x="0px" y="0px"
	 viewBox="0 0 512 512" style="enable-background:new 0 0 512 512;" xml:space="preserve">
<style type="text/css">
	.st0{fill:#212121;}
</style>
<g>
	<path class="st0" d="M92.44,0C41.39,0,0,41.39,0,92.44v327.11C0,470.61,41.39,512,92.44,512h327.11
		c51.05,0,92.44-41.39,92.44-92.44V92.44C512,41.39,470.61,0,419.56,0H92.44z M214.2,178.64L136.84,256l77.36,77.36
		c8.33,8.33,8.33,21.84,0,30.17c-8.33,8.33-21.84,8.33-30.17,0l-92.44-92.44c-8.33-8.33-8.33-21.84,0-30.17l92.44-92.45
		c8.33-8.33,21.84-8.33,30.17,0C222.53,156.8,222.53,170.31,214.2,178.64z M327.97,148.47l92.44,92.45c8.33,8.33,8.33,21.84,0,30.17
		l-92.44,92.44c-8.33,8.33-21.84,8.33-30.17,0c-8.33-8.33-8.33-21.84,0-30.17L375.16,256l-77.36-77.36
		c-8.33-8.33-8.33-21.84,0-30.17C306.14,140.14,319.64,140.14,327.97,148.47z"/>
</g>
</svg>
